<?xml version="1.0" encoding="UTF-8" standalone="no"?><svg xmlns="http://www.w3.org/2000/svg" xmlns:xlink="http://www.w3.org/1999/xlink" contentScriptType="application/ecmascript" contentStyleType="text/css" height="317px" preserveAspectRatio="none" style="width:235px;height:317px;background:#FFFFFF;" version="1.1" viewBox="0 0 235 317" width="235px" zoomAndPan="magnify"><defs><filter height="300%" id="f1k90652gg0og5" width="300%" x="-1" y="-1"><feGaussianBlur result="blurOut" stdDeviation="2.0"/><feColorMatrix in="blurOut" result="blurOut2" type="matrix" values="0 0 0 0 0 0 0 0 0 0 0 0 0 0 0 0 0 0 .4 0"/><feOffset dx="4.0" dy="4.0" in="blurOut2" result="blurOut3"/><feBlend in="SourceGraphic" in2="blurOut3" mode="normal"/></filter></defs><g><!--MD5=[0d5e90eb3538dad15f68f391a8ab18b0]
class nz.ac.vuw.ecs.swen225.gp21.domain.Chap--><a href="Chap.html" target="_top" title="Chap.html" xlink:actuate="onRequest" xlink:href="Chap.html" xlink:show="new" xlink:title="Chap.html" xlink:type="simple"><rect codeLine="5" fill="#FEFECE" filter="url(#f1k90652gg0og5)" height="109.9609" id="nz.ac.vuw.ecs.swen225.gp21.domain.Chap" style="stroke:#A80036;stroke-width:1.5;" width="211" x="8.5" y="177"/><ellipse cx="23.5" cy="195.9688" fill="#ADD1B2" rx="11" ry="11" style="stroke:#A80036;stroke-width:1.0;"/><path d="M26.4688,201.6094 Q25.8906,201.9063 25.25,202.0469 Q24.6094,202.2031 23.9063,202.2031 Q21.4063,202.2031 20.0781,200.5625 Q18.7656,198.9063 18.7656,195.7813 Q18.7656,192.6563 20.0781,191 Q21.4063,189.3438 23.9063,189.3438 Q24.6094,189.3438 25.25,189.5 Q25.9063,189.6563 26.4688,189.9531 L26.4688,192.6719 Q25.8438,192.0938 25.25,191.8281 Q24.6563,191.5469 24.0313,191.5469 Q22.6875,191.5469 22,192.625 Q21.3125,193.6875 21.3125,195.7813 Q21.3125,197.875 22,198.9531 Q22.6875,200.0156 24.0313,200.0156 Q24.6563,200.0156 25.25,199.75 Q25.8438,199.4688 26.4688,198.8906 L26.4688,201.6094 Z " fill="#000000"/><text fill="#000000" font-family="sans-serif" font-size="14" lengthAdjust="spacing" textLength="36" x="109" y="194.9951">Chap</text><text fill="#000000" font-family="sans-serif" font-size="10" lengthAdjust="spacing" textLength="179" x="37.5" y="207.5791">nz.ac.vuw.ecs.swen225.gp21.domain</text><line style="stroke:#A80036;stroke-width:1.5;" x1="9.5" x2="218.5" y1="214.9375" y2="214.9375"/><ellipse cx="19.5" cy="225.9375" fill="#84BE84" rx="3" ry="3" style="stroke:#038048;stroke-width:1.0;"/><text fill="#000000" font-family="sans-serif" font-size="11" lengthAdjust="spacing" textLength="104" x="28.5" y="229.1479">move(Game): void</text><ellipse cx="19.5" cy="238.7422" fill="#84BE84" rx="3" ry="3" style="stroke:#038048;stroke-width:1.0;"/><text fill="#000000" font-family="sans-serif" font-size="11" lengthAdjust="spacing" textLength="100" x="28.5" y="241.9526">getPos(): Position</text><ellipse cx="19.5" cy="251.5469" fill="#84BE84" rx="3" ry="3" style="stroke:#038048;stroke-width:1.0;"/><text fill="#000000" font-family="sans-serif" font-size="11" lengthAdjust="spacing" textLength="123" x="28.5" y="254.7573">setPos(Position): void</text><ellipse cx="19.5" cy="264.3516" fill="#84BE84" rx="3" ry="3" style="stroke:#038048;stroke-width:1.0;"/><text fill="#000000" font-family="sans-serif" font-size="11" lengthAdjust="spacing" textLength="153" x="28.5" y="267.562">getImage(): BufferedImage</text><ellipse cx="19.5" cy="277.1563" fill="#84BE84" rx="3" ry="3" style="stroke:#038048;stroke-width:1.0;"/><text fill="#000000" font-family="sans-serif" font-size="11" lengthAdjust="spacing" textLength="109" x="28.5" y="280.3667">isDeadly(): boolean</text></a><!--MD5=[6a567221bd5fca167da2f92a1c411af0]
class nz.ac.vuw.ecs.swen225.gp21.domain.Actor--><a href="Actor.html" target="_top" title="Actor.html" xlink:actuate="onRequest" xlink:href="Actor.html" xlink:show="new" xlink:title="Actor.html" xlink:type="simple"><rect codeLine="13" fill="#FEFECE" filter="url(#f1k90652gg0og5)" height="109.9609" id="nz.ac.vuw.ecs.swen225.gp21.domain.Actor" style="stroke:#A80036;stroke-width:1.5;" width="214" x="7" y="7"/><ellipse cx="22" cy="25.9688" fill="#B4A7E5" rx="11" ry="11" style="stroke:#A80036;stroke-width:1.0;"/><path d="M17.9219,21.7344 L17.9219,19.5781 L25.3125,19.5781 L25.3125,21.7344 L22.8438,21.7344 L22.8438,29.8125 L25.3125,29.8125 L25.3125,31.9688 L17.9219,31.9688 L17.9219,29.8125 L20.3906,29.8125 L20.3906,21.7344 L17.9219,21.7344 Z " fill="#000000"/><text fill="#000000" font-family="sans-serif" font-size="14" font-style="italic" lengthAdjust="spacing" textLength="37" x="108.5" y="24.9951">Actor</text><text fill="#000000" font-family="sans-serif" font-size="10" font-style="italic" lengthAdjust="spacing" textLength="182" x="36" y="37.5791">nz.ac.vuw.ecs.swen225.gp21.domain</text><line style="stroke:#A80036;stroke-width:1.5;" x1="8" x2="220" y1="44.9375" y2="44.9375"/><ellipse cx="18" cy="55.9375" fill="#84BE84" rx="3" ry="3" style="stroke:#038048;stroke-width:1.0;"/><text fill="#000000" font-family="sans-serif" font-size="11" font-style="italic" lengthAdjust="spacing" textLength="106" x="27" y="59.1479">move(Game): void</text><ellipse cx="18" cy="68.7422" fill="#84BE84" rx="3" ry="3" style="stroke:#038048;stroke-width:1.0;"/><text fill="#000000" font-family="sans-serif" font-size="11" font-style="italic" lengthAdjust="spacing" textLength="98" x="27" y="71.9526">getPos(): Position</text><ellipse cx="18" cy="81.5469" fill="#84BE84" rx="3" ry="3" style="stroke:#038048;stroke-width:1.0;"/><text fill="#000000" font-family="sans-serif" font-size="11" font-style="italic" lengthAdjust="spacing" textLength="121" x="27" y="84.7573">setPos(Position): void</text><ellipse cx="18" cy="94.3516" fill="#84BE84" rx="3" ry="3" style="stroke:#038048;stroke-width:1.0;"/><text fill="#000000" font-family="sans-serif" font-size="11" font-style="italic" lengthAdjust="spacing" textLength="153" x="27" y="97.562">getImage(): BufferedImage</text><ellipse cx="18" cy="107.1563" fill="#84BE84" rx="3" ry="3" style="stroke:#038048;stroke-width:1.0;"/><text fill="#000000" font-family="sans-serif" font-size="11" font-style="italic" lengthAdjust="spacing" textLength="109" x="27" y="110.3667">isDeadly(): boolean</text></a><!--MD5=[31f87ef6377dcfe28871ead969b9ef45]
reverse link nz.ac.vuw.ecs.swen225.gp21.domain.Actor to nz.ac.vuw.ecs.swen225.gp21.domain.Chap--><path codeLine="21" d="M114,137.41 C114,150.64 114,164.2 114,176.73 " fill="none" id="nz.ac.vuw.ecs.swen225.gp21.domain.Actor-backto-nz.ac.vuw.ecs.swen225.gp21.domain.Chap" style="stroke:#A80036;stroke-width:1.0;stroke-dasharray:7.0,7.0;"/><polygon fill="none" points="107,137.08,114,117.08,121,137.08,107,137.08" style="stroke:#A80036;stroke-width:1.0;"/><text fill="#888888" font-family="sans-serif" font-size="10" lengthAdjust="spacing" textLength="186" x="18" y="309.2432">UMLDoclet 2.0.14, PlantUML 1.2021.9</text><!--MD5=[65d74d1881a767abcf8531b13a720bdf]
@startuml
    set namespaceSeparator none
    hide empty fields
    hide empty methods

    class "<size:14>Chap\n<size:10>nz.ac.vuw.ecs.swen225.gp21.domain" as nz.ac.vuw.ecs.swen225.gp21.domain.Chap [[Chap.html]] {
        +move(Game): void
        +getPos(): Position
        +setPos(Position): void
        +getImage(): BufferedImage
        +isDeadly(): boolean
    }

    interface "<size:14>Actor\n<size:10>nz.ac.vuw.ecs.swen225.gp21.domain" as nz.ac.vuw.ecs.swen225.gp21.domain.Actor [[Actor.html]] {
        {abstract} +move(Game): void
        {abstract} +getPos(): Position
        {abstract} +setPos(Position): void
        {abstract} +getImage(): BufferedImage
        {abstract} +isDeadly(): boolean
    }

    nz.ac.vuw.ecs.swen225.gp21.domain.Actor <|.. nz.ac.vuw.ecs.swen225.gp21.domain.Chap

    center footer UMLDoclet 2.0.14, PlantUML 1.2021.9
@enduml

PlantUML version 1.2021.9(Sun Jul 25 22:13:56 NZST 2021)
(APACHE source distribution)
Java Runtime: OpenJDK Runtime Environment
JVM: OpenJDK 64-Bit Server VM
Default Encoding: UTF-8
Language: en
Country: NZ
--></g></svg>