<?xml version="1.0" encoding="UTF-8" standalone="no"?><svg xmlns="http://www.w3.org/2000/svg" xmlns:xlink="http://www.w3.org/1999/xlink" contentScriptType="application/ecmascript" contentStyleType="text/css" height="284px" preserveAspectRatio="none" style="width:235px;height:284px;background:#FFFFFF;" version="1.1" viewBox="0 0 235 284" width="235px" zoomAndPan="magnify"><defs><filter height="300%" id="fvava5tmgqsy3" width="300%" x="-1" y="-1"><feGaussianBlur result="blurOut" stdDeviation="2.0"/><feColorMatrix in="blurOut" result="blurOut2" type="matrix" values="0 0 0 0 0 0 0 0 0 0 0 0 0 0 0 0 0 0 .4 0"/><feOffset dx="4.0" dy="4.0" in="blurOut2" result="blurOut3"/><feBlend in="SourceGraphic" in2="blurOut3" mode="normal"/></filter></defs><g><!--MD5=[7bbb484f1d7cb7f05776958c30c549a0]
class nz.ac.vuw.ecs.swen225.gp21.domain.Free--><a href="Free.html" target="_top" title="Free.html" xlink:actuate="onRequest" xlink:href="Free.html" xlink:show="new" xlink:title="Free.html" xlink:type="simple"><rect codeLine="5" fill="#FEFECE" filter="url(#fvava5tmgqsy3)" height="148.375" id="nz.ac.vuw.ecs.swen225.gp21.domain.Free" style="stroke:#A80036;stroke-width:1.5;" width="211" x="8.5" y="105"/><ellipse cx="23.5" cy="123.9688" fill="#ADD1B2" rx="11" ry="11" style="stroke:#A80036;stroke-width:1.0;"/><path d="M26.4688,129.6094 Q25.8906,129.9063 25.25,130.0469 Q24.6094,130.2031 23.9063,130.2031 Q21.4063,130.2031 20.0781,128.5625 Q18.7656,126.9063 18.7656,123.7813 Q18.7656,120.6563 20.0781,119 Q21.4063,117.3438 23.9063,117.3438 Q24.6094,117.3438 25.25,117.5 Q25.9063,117.6563 26.4688,117.9531 L26.4688,120.6719 Q25.8438,120.0938 25.25,119.8281 Q24.6563,119.5469 24.0313,119.5469 Q22.6875,119.5469 22,120.625 Q21.3125,121.6875 21.3125,123.7813 Q21.3125,125.875 22,126.9531 Q22.6875,128.0156 24.0313,128.0156 Q24.6563,128.0156 25.25,127.75 Q25.8438,127.4688 26.4688,126.8906 L26.4688,129.6094 Z " fill="#000000"/><text fill="#000000" font-family="sans-serif" font-size="14" lengthAdjust="spacing" textLength="31" x="111.5" y="122.9951">Free</text><text fill="#000000" font-family="sans-serif" font-size="10" lengthAdjust="spacing" textLength="179" x="37.5" y="135.5791">nz.ac.vuw.ecs.swen225.gp21.domain</text><line style="stroke:#A80036;stroke-width:1.5;" x1="9.5" x2="218.5" y1="142.9375" y2="142.9375"/><ellipse cx="19.5" cy="153.9375" fill="#84BE84" rx="3" ry="3" style="stroke:#038048;stroke-width:1.0;"/><text fill="#000000" font-family="sans-serif" font-size="11" lengthAdjust="spacing" textLength="120" x="28.5" y="157.1479">Free(String, boolean)</text><ellipse cx="19.5" cy="166.7422" fill="#84BE84" rx="3" ry="3" style="stroke:#038048;stroke-width:1.0;"/><text fill="#000000" font-family="sans-serif" font-size="11" lengthAdjust="spacing" textLength="33" x="28.5" y="169.9526">Free()</text><ellipse cx="19.5" cy="179.5469" fill="#84BE84" rx="3" ry="3" style="stroke:#038048;stroke-width:1.0;"/><text fill="#000000" font-family="sans-serif" font-size="11" lengthAdjust="spacing" textLength="102" x="28.5" y="182.7573">hasKey(): boolean</text><ellipse cx="19.5" cy="192.3516" fill="#84BE84" rx="3" ry="3" style="stroke:#038048;stroke-width:1.0;"/><text fill="#000000" font-family="sans-serif" font-size="11" lengthAdjust="spacing" textLength="88" x="28.5" y="195.562">getKey(): String</text><ellipse cx="19.5" cy="205.1563" fill="#84BE84" rx="3" ry="3" style="stroke:#038048;stroke-width:1.0;"/><text fill="#000000" font-family="sans-serif" font-size="11" lengthAdjust="spacing" textLength="102" x="28.5" y="208.3667">removeKey(): void</text><ellipse cx="19.5" cy="217.9609" fill="#84BE84" rx="3" ry="3" style="stroke:#038048;stroke-width:1.0;"/><text fill="#000000" font-family="sans-serif" font-size="11" lengthAdjust="spacing" textLength="134" x="28.5" y="221.1714">removeTreasure(): void</text><ellipse cx="19.5" cy="230.7656" fill="#84BE84" rx="3" ry="3" style="stroke:#038048;stroke-width:1.0;"/><text fill="#000000" font-family="sans-serif" font-size="11" lengthAdjust="spacing" textLength="134" x="28.5" y="233.9761">hasTreasure(): boolean</text><ellipse cx="19.5" cy="243.5703" fill="#84BE84" rx="3" ry="3" style="stroke:#038048;stroke-width:1.0;"/><text fill="#000000" font-family="sans-serif" font-size="11" lengthAdjust="spacing" textLength="137" x="28.5" y="246.7808">canMoveHere(): boolean</text></a><!--MD5=[f3f367eb1ba0a4f3412c41dc215fff5e]
class nz.ac.vuw.ecs.swen225.gp21.domain.AbstractTile--><a href="AbstractTile.html" target="_top" title="AbstractTile.html" xlink:actuate="onRequest" xlink:href="AbstractTile.html" xlink:show="new" xlink:title="AbstractTile.html" xlink:type="simple"><rect codeLine="16" fill="#FEFECE" filter="url(#fvava5tmgqsy3)" height="37.9375" id="nz.ac.vuw.ecs.swen225.gp21.domain.AbstractTile" style="stroke:#A80036;stroke-width:1.5;" width="214" x="7" y="7"/><ellipse cx="22" cy="25.9688" fill="#A9DCDF" rx="11" ry="11" style="stroke:#A80036;stroke-width:1.0;"/><path d="M22.1094,21.3125 L20.9531,26.3906 L23.2813,26.3906 L22.1094,21.3125 Z M20.625,19.0781 L23.6094,19.0781 L26.9688,31.4688 L24.5156,31.4688 L23.75,28.4063 L20.4688,28.4063 L19.7188,31.4688 L17.2813,31.4688 L20.625,19.0781 Z " fill="#000000"/><text fill="#000000" font-family="sans-serif" font-size="14" font-style="italic" lengthAdjust="spacing" textLength="81" x="86.5" y="24.9951">AbstractTile</text><text fill="#000000" font-family="sans-serif" font-size="10" font-style="italic" lengthAdjust="spacing" textLength="182" x="36" y="37.5791">nz.ac.vuw.ecs.swen225.gp21.domain</text></a><!--MD5=[194cb0f5894b490e2e881050e4d47c87]
reverse link nz.ac.vuw.ecs.swen225.gp21.domain.AbstractTile to nz.ac.vuw.ecs.swen225.gp21.domain.Free--><path codeLine="18" d="M114,65.32 C114,77.41 114,91.2 114,104.88 " fill="none" id="nz.ac.vuw.ecs.swen225.gp21.domain.AbstractTile-backto-nz.ac.vuw.ecs.swen225.gp21.domain.Free" style="stroke:#A80036;stroke-width:1.0;"/><polygon fill="none" points="107,65.21,114,45.21,121,65.21,107,65.21" style="stroke:#A80036;stroke-width:1.0;"/><text fill="#888888" font-family="sans-serif" font-size="10" lengthAdjust="spacing" textLength="186" x="18" y="275.6572">UMLDoclet 2.0.14, PlantUML 1.2021.9</text><!--MD5=[67e1994f57a9f56dfe48cd540af7a084]
@startuml
    set namespaceSeparator none
    hide empty fields
    hide empty methods

    class "<size:14>Free\n<size:10>nz.ac.vuw.ecs.swen225.gp21.domain" as nz.ac.vuw.ecs.swen225.gp21.domain.Free [[Free.html]] {
        +Free(String, boolean)
        +Free()
        +hasKey(): boolean
        +getKey(): String
        +removeKey(): void
        +removeTreasure(): void
        +hasTreasure(): boolean
        +canMoveHere(): boolean
    }

    abstract class "<size:14>AbstractTile\n<size:10>nz.ac.vuw.ecs.swen225.gp21.domain" as nz.ac.vuw.ecs.swen225.gp21.domain.AbstractTile [[AbstractTile.html]]

    nz.ac.vuw.ecs.swen225.gp21.domain.AbstractTile <|- - nz.ac.vuw.ecs.swen225.gp21.domain.Free

    center footer UMLDoclet 2.0.14, PlantUML 1.2021.9
@enduml

PlantUML version 1.2021.9(Sun Jul 25 22:13:56 NZST 2021)
(APACHE source distribution)
Java Runtime: OpenJDK Runtime Environment
JVM: OpenJDK 64-Bit Server VM
Default Encoding: UTF-8
Language: en
Country: NZ
--></g></svg>