<?xml version="1.0" encoding="UTF-8" standalone="no"?><svg xmlns="http://www.w3.org/2000/svg" xmlns:xlink="http://www.w3.org/1999/xlink" contentScriptType="application/ecmascript" contentStyleType="text/css" height="309px" preserveAspectRatio="none" style="width:223px;height:309px;background:#FFFFFF;" version="1.1" viewBox="0 0 223 309" width="223px" zoomAndPan="magnify"><defs><filter height="300%" id="f1j7gab6a9uci8" width="300%" x="-1" y="-1"><feGaussianBlur result="blurOut" stdDeviation="2.0"/><feColorMatrix in="blurOut" result="blurOut2" type="matrix" values="0 0 0 0 0 0 0 0 0 0 0 0 0 0 0 0 0 0 .4 0"/><feOffset dx="4.0" dy="4.0" in="blurOut2" result="blurOut3"/><feBlend in="SourceGraphic" in2="blurOut3" mode="normal"/></filter></defs><g><!--MD5=[db5ec0bdd1e4bd698366f627d6e69321]
class nz.ac.vuw.ecs.swen225.gp21.App.MainFrame--><a href="MainFrame.html" target="_top" title="MainFrame.html" xlink:actuate="onRequest" xlink:href="MainFrame.html" xlink:show="new" xlink:title="MainFrame.html" xlink:type="simple"><rect codeLine="5" fill="#FEFECE" filter="url(#f1j7gab6a9uci8)" height="173.9844" id="nz.ac.vuw.ecs.swen225.gp21.App.MainFrame" style="stroke:#A80036;stroke-width:1.5;" width="202" x="7" y="105"/><ellipse cx="25.6" cy="123.9688" fill="#ADD1B2" rx="11" ry="11" style="stroke:#A80036;stroke-width:1.0;"/><path d="M28.5688,129.6094 Q27.9906,129.9063 27.35,130.0469 Q26.7094,130.2031 26.0063,130.2031 Q23.5063,130.2031 22.1781,128.5625 Q20.8656,126.9063 20.8656,123.7813 Q20.8656,120.6563 22.1781,119 Q23.5063,117.3438 26.0063,117.3438 Q26.7094,117.3438 27.35,117.5 Q28.0063,117.6563 28.5688,117.9531 L28.5688,120.6719 Q27.9438,120.0938 27.35,119.8281 Q26.7563,119.5469 26.1313,119.5469 Q24.7875,119.5469 24.1,120.625 Q23.4125,121.6875 23.4125,123.7813 Q23.4125,125.875 24.1,126.9531 Q24.7875,128.0156 26.1313,128.0156 Q26.7563,128.0156 27.35,127.75 Q27.9438,127.4688 28.5688,126.8906 L28.5688,129.6094 Z " fill="#000000"/><text fill="#000000" font-family="sans-serif" font-size="14" lengthAdjust="spacing" textLength="75" x="83.9" y="122.9951">MainFrame</text><text fill="#000000" font-family="sans-serif" font-size="10" lengthAdjust="spacing" textLength="162" x="40.4" y="135.5791">nz.ac.vuw.ecs.swen225.gp21.App</text><line style="stroke:#A80036;stroke-width:1.5;" x1="8" x2="208" y1="142.9375" y2="142.9375"/><ellipse cx="18" cy="153.9375" fill="#84BE84" rx="3" ry="3" style="stroke:#038048;stroke-width:1.0;"/><text fill="#000000" font-family="sans-serif" font-size="11" lengthAdjust="spacing" textLength="104" x="27" y="157.1479">MainFrame(String)</text><ellipse cx="18" cy="166.7422" fill="#84BE84" rx="3" ry="3" style="stroke:#038048;stroke-width:1.0;"/><text fill="#000000" font-family="sans-serif" font-size="11" lengthAdjust="spacing" textLength="125" x="27" y="169.9526">createMenuBar(): void</text><ellipse cx="18" cy="179.5469" fill="#84BE84" rx="3" ry="3" style="stroke:#038048;stroke-width:1.0;"/><text fill="#000000" font-family="sans-serif" font-size="11" lengthAdjust="spacing" textLength="145" x="27" y="182.7573">getSaveItem(): JMenuItem</text><ellipse cx="18" cy="192.3516" fill="#84BE84" rx="3" ry="3" style="stroke:#038048;stroke-width:1.0;"/><text fill="#000000" font-family="sans-serif" font-size="11" lengthAdjust="spacing" textLength="168" x="27" y="195.562">setSaveItem(JMenuItem): void</text><ellipse cx="18" cy="205.1563" fill="#84BE84" rx="3" ry="3" style="stroke:#038048;stroke-width:1.0;"/><text fill="#000000" font-family="sans-serif" font-size="11" lengthAdjust="spacing" textLength="144" x="27" y="208.3667">getLoadItem(): JMenuItem</text><ellipse cx="18" cy="217.9609" fill="#84BE84" rx="3" ry="3" style="stroke:#038048;stroke-width:1.0;"/><text fill="#000000" font-family="sans-serif" font-size="11" lengthAdjust="spacing" textLength="167" x="27" y="221.1714">setLoadItem(JMenuItem): void</text><ellipse cx="18" cy="230.7656" fill="#84BE84" rx="3" ry="3" style="stroke:#038048;stroke-width:1.0;"/><text fill="#000000" font-family="sans-serif" font-size="11" lengthAdjust="spacing" textLength="153" x="27" y="233.9761">getLevel1Item(): JMenuItem</text><ellipse cx="18" cy="243.5703" fill="#84BE84" rx="3" ry="3" style="stroke:#038048;stroke-width:1.0;"/><text fill="#000000" font-family="sans-serif" font-size="11" lengthAdjust="spacing" textLength="176" x="27" y="246.7808">setLevel1Item(JMenuItem): void</text><ellipse cx="18" cy="256.375" fill="#84BE84" rx="3" ry="3" style="stroke:#038048;stroke-width:1.0;"/><text fill="#000000" font-family="sans-serif" font-size="11" lengthAdjust="spacing" textLength="153" x="27" y="259.5854">getLevel2Item(): JMenuItem</text><ellipse cx="18" cy="269.1797" fill="#84BE84" rx="3" ry="3" style="stroke:#038048;stroke-width:1.0;"/><text fill="#000000" font-family="sans-serif" font-size="11" lengthAdjust="spacing" textLength="176" x="27" y="272.3901">setLevel2Item(JMenuItem): void</text></a><!--MD5=[18a7562403221f513ca44e0f82c4c17a]
class javax.swing.JFrame--><rect codeLine="18" fill="#FEFECE" filter="url(#f1j7gab6a9uci8)" height="37.9375" id="javax.swing.JFrame" style="stroke:#A80036;stroke-width:1.5;" width="88" x="64" y="7"/><ellipse cx="79" cy="25.9688" fill="#ADD1B2" rx="11" ry="11" style="stroke:#A80036;stroke-width:1.0;"/><path d="M81.9688,31.6094 Q81.3906,31.9063 80.75,32.0469 Q80.1094,32.2031 79.4063,32.2031 Q76.9063,32.2031 75.5781,30.5625 Q74.2656,28.9063 74.2656,25.7813 Q74.2656,22.6563 75.5781,21 Q76.9063,19.3438 79.4063,19.3438 Q80.1094,19.3438 80.75,19.5 Q81.4063,19.6563 81.9688,19.9531 L81.9688,22.6719 Q81.3438,22.0938 80.75,21.8281 Q80.1563,21.5469 79.5313,21.5469 Q78.1875,21.5469 77.5,22.625 Q76.8125,23.6875 76.8125,25.7813 Q76.8125,27.875 77.5,28.9531 Q78.1875,30.0156 79.5313,30.0156 Q80.1563,30.0156 80.75,29.75 Q81.3438,29.4688 81.9688,28.8906 L81.9688,31.6094 Z " fill="#000000"/><text fill="#000000" font-family="sans-serif" font-size="14" lengthAdjust="spacing" textLength="46" x="98" y="24.9951">JFrame</text><text fill="#000000" font-family="sans-serif" font-size="10" lengthAdjust="spacing" textLength="56" x="93" y="37.5791">javax.swing</text><!--MD5=[b3ffecddcd3991a24b4c34fd2d208a5b]
reverse link javax.swing.JFrame to nz.ac.vuw.ecs.swen225.gp21.App.MainFrame--><path codeLine="20" d="M108,65.51 C108,77.39 108,90.99 108,104.75 " fill="none" id="javax.swing.JFrame-backto-nz.ac.vuw.ecs.swen225.gp21.App.MainFrame" style="stroke:#A80036;stroke-width:1.0;"/><polygon fill="none" points="101,65.18,108,45.18,115,65.18,101,65.18" style="stroke:#A80036;stroke-width:1.0;"/><text fill="#888888" font-family="sans-serif" font-size="10" lengthAdjust="spacing" textLength="186" x="12" y="301.2666">UMLDoclet 2.0.14, PlantUML 1.2021.9</text><!--MD5=[35ed4f45ad135b64b487777164ba9db1]
@startuml
    set namespaceSeparator none
    hide empty fields
    hide empty methods

    class "<size:14>MainFrame\n<size:10>nz.ac.vuw.ecs.swen225.gp21.App" as nz.ac.vuw.ecs.swen225.gp21.App.MainFrame [[MainFrame.html]] {
        +MainFrame(String)
        +createMenuBar(): void
        +getSaveItem(): JMenuItem
        +setSaveItem(JMenuItem): void
        +getLoadItem(): JMenuItem
        +setLoadItem(JMenuItem): void
        +getLevel1Item(): JMenuItem
        +setLevel1Item(JMenuItem): void
        +getLevel2Item(): JMenuItem
        +setLevel2Item(JMenuItem): void
    }

    class "<size:14>JFrame\n<size:10>javax.swing" as javax.swing.JFrame

    javax.swing.JFrame <|- - nz.ac.vuw.ecs.swen225.gp21.App.MainFrame

    center footer UMLDoclet 2.0.14, PlantUML 1.2021.9
@enduml

PlantUML version 1.2021.9(Sun Jul 25 22:13:56 NZST 2021)
(APACHE source distribution)
Java Runtime: OpenJDK Runtime Environment
JVM: OpenJDK 64-Bit Server VM
Default Encoding: UTF-8
Language: en
Country: NZ
--></g></svg>