<?xml version="1.0" encoding="UTF-8" standalone="no"?><svg xmlns="http://www.w3.org/2000/svg" xmlns:xlink="http://www.w3.org/1999/xlink" contentScriptType="application/ecmascript" contentStyleType="text/css" height="417px" preserveAspectRatio="none" style="width:758px;height:417px;background:#FFFFFF;" version="1.1" viewBox="0 0 758 417" width="758px" zoomAndPan="magnify"><defs><filter height="300%" id="f1b10xpgw6g4q3" width="300%" x="-1" y="-1"><feGaussianBlur result="blurOut" stdDeviation="2.0"/><feColorMatrix in="blurOut" result="blurOut2" type="matrix" values="0 0 0 0 0 0 0 0 0 0 0 0 0 0 0 0 0 0 .4 0"/><feOffset dx="4.0" dy="4.0" in="blurOut2" result="blurOut3"/><feBlend in="SourceGraphic" in2="blurOut3" mode="normal"/></filter></defs><g><!--MD5=[2b136b3819722a4f170ae7697d2e8a6e]
cluster nz.ac.vuw.ecs.swen225.gp21.App--><polygon fill="#FFFFFF" filter="url(#f1b10xpgw6g4q3)" points="16,167,294,167,301,189.2969,741,189.2969,741,394,16,394,16,167" style="stroke:#000000;stroke-width:1.5;"/><line style="stroke:#000000;stroke-width:1.5;" x1="16" x2="301" y1="189.2969" y2="189.2969"/><text fill="#000000" font-family="sans-serif" font-size="14" font-weight="bold" lengthAdjust="spacing" textLength="272" x="20" y="181.9951">nz.ac.vuw.ecs.swen225.gp21.App</text><!--MD5=[535aab4de90d4dfa371a9b40d5438fc3]
cluster javax.swing--><polygon fill="#FFFFFF" filter="url(#f1b10xpgw6g4q3)" points="76,6,174,6,181,28.2969,453,28.2969,453,143,76,143,76,6" style="stroke:#000000;stroke-width:1.5;"/><line style="stroke:#000000;stroke-width:1.5;" x1="76" x2="181" y1="28.2969" y2="28.2969"/><text fill="#000000" font-family="sans-serif" font-size="14" font-weight="bold" lengthAdjust="spacing" textLength="92" x="80" y="20.9951">javax.swing</text><!--MD5=[a95bf352e6f91f5eb0c2761af65ed605]
class nz.ac.vuw.ecs.swen225.gp21.App.StartingFrame--><a href="StartingFrame.html" target="_top" title="StartingFrame.html" xlink:actuate="onRequest" xlink:href="StartingFrame.html" xlink:show="new" xlink:title="StartingFrame.html" xlink:type="simple"><rect codeLine="3" fill="#FEFECE" filter="url(#f1b10xpgw6g4q3)" height="73.6094" id="nz.ac.vuw.ecs.swen225.gp21.App.StartingFrame" style="stroke:#A80036;stroke-width:1.5;" width="149" x="576.5" y="253"/><ellipse cx="604.1" cy="269" fill="#ADD1B2" rx="11" ry="11" style="stroke:#A80036;stroke-width:1.0;"/><path d="M607.0688,274.6406 Q606.4906,274.9375 605.85,275.0781 Q605.2094,275.2344 604.5063,275.2344 Q602.0063,275.2344 600.6781,273.5938 Q599.3656,271.9375 599.3656,268.8125 Q599.3656,265.6875 600.6781,264.0313 Q602.0063,262.375 604.5063,262.375 Q605.2094,262.375 605.85,262.5313 Q606.5063,262.6875 607.0688,262.9844 L607.0688,265.7031 Q606.4438,265.125 605.85,264.8594 Q605.2563,264.5781 604.6313,264.5781 Q603.2875,264.5781 602.6,265.6563 Q601.9125,266.7188 601.9125,268.8125 Q601.9125,270.9063 602.6,271.9844 Q603.2875,273.0469 604.6313,273.0469 Q605.2563,273.0469 605.85,272.7813 Q606.4438,272.5 607.0688,271.9219 L607.0688,274.6406 Z " fill="#000000"/><text fill="#000000" font-family="sans-serif" font-size="12" lengthAdjust="spacing" textLength="89" x="620.9" y="273.1543">StartingFrame</text><line style="stroke:#A80036;stroke-width:1.5;" x1="577.5" x2="724.5" y1="285" y2="285"/><line style="stroke:#A80036;stroke-width:1.5;" x1="577.5" x2="724.5" y1="293" y2="293"/><ellipse cx="587.5" cy="304" fill="#84BE84" rx="3" ry="3" style="stroke:#038048;stroke-width:1.0;"/><text fill="#000000" font-family="sans-serif" font-size="11" lengthAdjust="spacing" textLength="123" x="596.5" y="307.2104">StartingFrame(String)</text><ellipse cx="587.5" cy="316.8047" fill="#84BE84" rx="3" ry="3" style="stroke:#038048;stroke-width:1.0;"/><text fill="#000000" font-family="sans-serif" font-size="11" lengthAdjust="spacing" text-decoration="underline" textLength="109" x="596.5" y="320.0151">main(String[]): void</text></a><!--MD5=[de33bf60665f5f7eb964182fec6f89b7]
class nz.ac.vuw.ecs.swen225.gp21.App.GUI--><a href="GUI.html" target="_top" title="GUI.html" xlink:actuate="onRequest" xlink:href="GUI.html" xlink:show="new" xlink:title="GUI.html" xlink:type="simple"><rect codeLine="8" fill="#FEFECE" filter="url(#f1b10xpgw6g4q3)" height="60.8047" id="nz.ac.vuw.ecs.swen225.gp21.App.GUI" style="stroke:#A80036;stroke-width:1.5;" width="88" x="453" y="259.5"/><ellipse cx="483.75" cy="275.5" fill="#ADD1B2" rx="11" ry="11" style="stroke:#A80036;stroke-width:1.0;"/><path d="M486.7188,281.1406 Q486.1406,281.4375 485.5,281.5781 Q484.8594,281.7344 484.1563,281.7344 Q481.6563,281.7344 480.3281,280.0938 Q479.0156,278.4375 479.0156,275.3125 Q479.0156,272.1875 480.3281,270.5313 Q481.6563,268.875 484.1563,268.875 Q484.8594,268.875 485.5,269.0313 Q486.1563,269.1875 486.7188,269.4844 L486.7188,272.2031 Q486.0938,271.625 485.5,271.3594 Q484.9063,271.0781 484.2813,271.0781 Q482.9375,271.0781 482.25,272.1563 Q481.5625,273.2188 481.5625,275.3125 Q481.5625,277.4063 482.25,278.4844 Q482.9375,279.5469 484.2813,279.5469 Q484.9063,279.5469 485.5,279.2813 Q486.0938,279 486.7188,278.4219 L486.7188,281.1406 Z " fill="#000000"/><text fill="#000000" font-family="sans-serif" font-size="12" lengthAdjust="spacing" textLength="21" x="501.25" y="279.6543">GUI</text><line style="stroke:#A80036;stroke-width:1.5;" x1="454" x2="540" y1="291.5" y2="291.5"/><line style="stroke:#A80036;stroke-width:1.5;" x1="454" x2="540" y1="299.5" y2="299.5"/><ellipse cx="464" cy="310.5" fill="#84BE84" rx="3" ry="3" style="stroke:#038048;stroke-width:1.0;"/><text fill="#000000" font-family="sans-serif" font-size="11" lengthAdjust="spacing" textLength="62" x="473" y="313.7104">GUI(String)</text></a><!--MD5=[1c5bf6357768c78329a5317113ab40bd]
class nz.ac.vuw.ecs.swen225.gp21.App.InfoPanel--><a href="InfoPanel.html" target="_top" title="InfoPanel.html" xlink:actuate="onRequest" xlink:href="InfoPanel.html" xlink:show="new" xlink:title="InfoPanel.html" xlink:type="simple"><rect codeLine="12" fill="#FEFECE" filter="url(#f1b10xpgw6g4q3)" height="73.6094" id="nz.ac.vuw.ecs.swen225.gp21.App.InfoPanel" style="stroke:#A80036;stroke-width:1.5;" width="149" x="31.5" y="253"/><ellipse cx="73.05" cy="269" fill="#ADD1B2" rx="11" ry="11" style="stroke:#A80036;stroke-width:1.0;"/><path d="M76.0188,274.6406 Q75.4406,274.9375 74.8,275.0781 Q74.1594,275.2344 73.4563,275.2344 Q70.9563,275.2344 69.6281,273.5938 Q68.3156,271.9375 68.3156,268.8125 Q68.3156,265.6875 69.6281,264.0313 Q70.9563,262.375 73.4563,262.375 Q74.1594,262.375 74.8,262.5313 Q75.4563,262.6875 76.0188,262.9844 L76.0188,265.7031 Q75.3938,265.125 74.8,264.8594 Q74.2063,264.5781 73.5813,264.5781 Q72.2375,264.5781 71.55,265.6563 Q70.8625,266.7188 70.8625,268.8125 Q70.8625,270.9063 71.55,271.9844 Q72.2375,273.0469 73.5813,273.0469 Q74.2063,273.0469 74.8,272.7813 Q75.3938,272.5 76.0188,271.9219 L76.0188,274.6406 Z " fill="#000000"/><text fill="#000000" font-family="sans-serif" font-size="12" lengthAdjust="spacing" textLength="58" x="92.95" y="273.1543">InfoPanel</text><line style="stroke:#A80036;stroke-width:1.5;" x1="32.5" x2="179.5" y1="285" y2="285"/><line style="stroke:#A80036;stroke-width:1.5;" x1="32.5" x2="179.5" y1="293" y2="293"/><ellipse cx="42.5" cy="304" fill="#84BE84" rx="3" ry="3" style="stroke:#038048;stroke-width:1.0;"/><text fill="#000000" font-family="sans-serif" font-size="11" lengthAdjust="spacing" textLength="116" x="51.5" y="307.2104">InfoPanel(String, int)</text><ellipse cx="42.5" cy="316.8047" fill="#84BE84" rx="3" ry="3" style="stroke:#038048;stroke-width:1.0;"/><text fill="#000000" font-family="sans-serif" font-size="11" lengthAdjust="spacing" textLength="123" x="51.5" y="320.0151">updateValue(int): void</text></a><!--MD5=[db5ec0bdd1e4bd698366f627d6e69321]
class nz.ac.vuw.ecs.swen225.gp21.App.MainFrame--><a href="MainFrame.html" target="_top" title="MainFrame.html" xlink:actuate="onRequest" xlink:href="MainFrame.html" xlink:show="new" xlink:title="MainFrame.html" xlink:type="simple"><rect codeLine="17" fill="#FEFECE" filter="url(#f1b10xpgw6g4q3)" height="176.0469" id="nz.ac.vuw.ecs.swen225.gp21.App.MainFrame" style="stroke:#A80036;stroke-width:1.5;" width="202" x="216" y="202"/><ellipse cx="278.75" cy="218" fill="#ADD1B2" rx="11" ry="11" style="stroke:#A80036;stroke-width:1.0;"/><path d="M281.7188,223.6406 Q281.1406,223.9375 280.5,224.0781 Q279.8594,224.2344 279.1563,224.2344 Q276.6563,224.2344 275.3281,222.5938 Q274.0156,220.9375 274.0156,217.8125 Q274.0156,214.6875 275.3281,213.0313 Q276.6563,211.375 279.1563,211.375 Q279.8594,211.375 280.5,211.5313 Q281.1563,211.6875 281.7188,211.9844 L281.7188,214.7031 Q281.0938,214.125 280.5,213.8594 Q279.9063,213.5781 279.2813,213.5781 Q277.9375,213.5781 277.25,214.6563 Q276.5625,215.7188 276.5625,217.8125 Q276.5625,219.9063 277.25,220.9844 Q277.9375,222.0469 279.2813,222.0469 Q279.9063,222.0469 280.5,221.7813 Q281.0938,221.5 281.7188,220.9219 L281.7188,223.6406 Z " fill="#000000"/><text fill="#000000" font-family="sans-serif" font-size="12" lengthAdjust="spacing" textLength="68" x="299.25" y="222.1543">MainFrame</text><line style="stroke:#A80036;stroke-width:1.5;" x1="217" x2="417" y1="234" y2="234"/><line style="stroke:#A80036;stroke-width:1.5;" x1="217" x2="417" y1="242" y2="242"/><ellipse cx="227" cy="253" fill="#84BE84" rx="3" ry="3" style="stroke:#038048;stroke-width:1.0;"/><text fill="#000000" font-family="sans-serif" font-size="11" lengthAdjust="spacing" textLength="104" x="236" y="256.2104">MainFrame(String)</text><ellipse cx="227" cy="265.8047" fill="#84BE84" rx="3" ry="3" style="stroke:#038048;stroke-width:1.0;"/><text fill="#000000" font-family="sans-serif" font-size="11" lengthAdjust="spacing" textLength="125" x="236" y="269.0151">createMenuBar(): void</text><ellipse cx="227" cy="278.6094" fill="#84BE84" rx="3" ry="3" style="stroke:#038048;stroke-width:1.0;"/><text fill="#000000" font-family="sans-serif" font-size="11" lengthAdjust="spacing" textLength="145" x="236" y="281.8198">getSaveItem(): JMenuItem</text><ellipse cx="227" cy="291.4141" fill="#84BE84" rx="3" ry="3" style="stroke:#038048;stroke-width:1.0;"/><text fill="#000000" font-family="sans-serif" font-size="11" lengthAdjust="spacing" textLength="168" x="236" y="294.6245">setSaveItem(JMenuItem): void</text><ellipse cx="227" cy="304.2188" fill="#84BE84" rx="3" ry="3" style="stroke:#038048;stroke-width:1.0;"/><text fill="#000000" font-family="sans-serif" font-size="11" lengthAdjust="spacing" textLength="144" x="236" y="307.4292">getLoadItem(): JMenuItem</text><ellipse cx="227" cy="317.0234" fill="#84BE84" rx="3" ry="3" style="stroke:#038048;stroke-width:1.0;"/><text fill="#000000" font-family="sans-serif" font-size="11" lengthAdjust="spacing" textLength="167" x="236" y="320.2339">setLoadItem(JMenuItem): void</text><ellipse cx="227" cy="329.8281" fill="#84BE84" rx="3" ry="3" style="stroke:#038048;stroke-width:1.0;"/><text fill="#000000" font-family="sans-serif" font-size="11" lengthAdjust="spacing" textLength="153" x="236" y="333.0386">getLevel1Item(): JMenuItem</text><ellipse cx="227" cy="342.6328" fill="#84BE84" rx="3" ry="3" style="stroke:#038048;stroke-width:1.0;"/><text fill="#000000" font-family="sans-serif" font-size="11" lengthAdjust="spacing" textLength="176" x="236" y="345.8433">setLevel1Item(JMenuItem): void</text><ellipse cx="227" cy="355.4375" fill="#84BE84" rx="3" ry="3" style="stroke:#038048;stroke-width:1.0;"/><text fill="#000000" font-family="sans-serif" font-size="11" lengthAdjust="spacing" textLength="153" x="236" y="358.6479">getLevel2Item(): JMenuItem</text><ellipse cx="227" cy="368.2422" fill="#84BE84" rx="3" ry="3" style="stroke:#038048;stroke-width:1.0;"/><text fill="#000000" font-family="sans-serif" font-size="11" lengthAdjust="spacing" textLength="176" x="236" y="371.4526">setLevel2Item(JMenuItem): void</text></a><!--MD5=[18a7562403221f513ca44e0f82c4c17a]
class javax.swing.JFrame--><rect codeLine="36" fill="#FEFECE" filter="url(#f1b10xpgw6g4q3)" height="86.4141" id="javax.swing.JFrame" style="stroke:#A80036;stroke-width:1.5;" width="240" x="197" y="41"/><ellipse cx="291.75" cy="57" fill="#ADD1B2" rx="11" ry="11" style="stroke:#A80036;stroke-width:1.0;"/><path d="M294.7188,62.6406 Q294.1406,62.9375 293.5,63.0781 Q292.8594,63.2344 292.1563,63.2344 Q289.6563,63.2344 288.3281,61.5938 Q287.0156,59.9375 287.0156,56.8125 Q287.0156,53.6875 288.3281,52.0313 Q289.6563,50.375 292.1563,50.375 Q292.8594,50.375 293.5,50.5313 Q294.1563,50.6875 294.7188,50.9844 L294.7188,53.7031 Q294.0938,53.125 293.5,52.8594 Q292.9063,52.5781 292.2813,52.5781 Q290.9375,52.5781 290.25,53.6563 Q289.5625,54.7188 289.5625,56.8125 Q289.5625,58.9063 290.25,59.9844 Q290.9375,61.0469 292.2813,61.0469 Q292.9063,61.0469 293.5,60.7813 Q294.0938,60.5 294.7188,59.9219 L294.7188,62.6406 Z " fill="#000000"/><text fill="#000000" font-family="sans-serif" font-size="12" lengthAdjust="spacing" textLength="42" x="312.25" y="61.1543">JFrame</text><line style="stroke:#A80036;stroke-width:1.5;" x1="198" x2="436" y1="73" y2="73"/><polygon fill="none" points="208,79,212,83,208,87,204,83" style="stroke:#B38D22;stroke-width:1.0;"/><text fill="#000000" font-family="sans-serif" font-size="11" lengthAdjust="spacing" textLength="115" x="217" y="87.2104">rootPane: JRootPane</text><polygon fill="none" points="208,91.8047,212,95.8047,208,99.8047,204,95.8047" style="stroke:#B38D22;stroke-width:1.0;"/><text fill="#000000" font-family="sans-serif" font-size="11" lengthAdjust="spacing" textLength="200" x="217" y="100.0151">rootPaneCheckingEnabled: boolean</text><polygon fill="none" points="208,104.6094,212,108.6094,208,112.6094,204,108.6094" style="stroke:#B38D22;stroke-width:1.0;"/><text fill="#000000" font-family="sans-serif" font-size="11" lengthAdjust="spacing" textLength="214" x="217" y="112.8198">accessibleContext: AccessibleContext</text><line style="stroke:#A80036;stroke-width:1.5;" x1="198" x2="436" y1="119.4141" y2="119.4141"/><!--MD5=[56a185cb33bdc7c23303e5865f20a19b]
class javax.swing.JPanel--><rect codeLine="41" fill="#FEFECE" filter="url(#f1b10xpgw6g4q3)" height="48" id="javax.swing.JPanel" style="stroke:#A80036;stroke-width:1.5;" width="70" x="92" y="60"/><ellipse cx="107" cy="76" fill="#ADD1B2" rx="11" ry="11" style="stroke:#A80036;stroke-width:1.0;"/><path d="M109.9688,81.6406 Q109.3906,81.9375 108.75,82.0781 Q108.1094,82.2344 107.4063,82.2344 Q104.9063,82.2344 103.5781,80.5938 Q102.2656,78.9375 102.2656,75.8125 Q102.2656,72.6875 103.5781,71.0313 Q104.9063,69.375 107.4063,69.375 Q108.1094,69.375 108.75,69.5313 Q109.4063,69.6875 109.9688,69.9844 L109.9688,72.7031 Q109.3438,72.125 108.75,71.8594 Q108.1563,71.5781 107.5313,71.5781 Q106.1875,71.5781 105.5,72.6563 Q104.8125,73.7188 104.8125,75.8125 Q104.8125,77.9063 105.5,78.9844 Q106.1875,80.0469 107.5313,80.0469 Q108.1563,80.0469 108.75,79.7813 Q109.3438,79.5 109.9688,78.9219 L109.9688,81.6406 Z " fill="#000000"/><text fill="#000000" font-family="sans-serif" font-size="12" lengthAdjust="spacing" textLength="38" x="121" y="80.1543">JPanel</text><line style="stroke:#A80036;stroke-width:1.5;" x1="93" x2="161" y1="92" y2="92"/><line style="stroke:#A80036;stroke-width:1.5;" x1="93" x2="161" y1="100" y2="100"/><!--MD5=[800faf2d47e1e38e01b44f72c99b3de2]
reverse link javax.swing.JFrame to nz.ac.vuw.ecs.swen225.gp21.App.StartingFrame--><path codeLine="30" d="M456.69,110.82 C492.25,121.77 528.88,137.23 559,159 C592.5,183.21 618.25,223.48 633.88,252.79 " fill="none" id="javax.swing.JFrame-backto-nz.ac.vuw.ecs.swen225.gp21.App.StartingFrame" style="stroke:#A80036;stroke-width:1.0;"/><polygon fill="none" points="454.38,117.44,437.09,105.19,458.25,103.99,454.38,117.44" style="stroke:#A80036;stroke-width:1.0;"/><!--MD5=[99177153fb27d5b79b68421e8e1cf406]
reverse link javax.swing.JPanel to nz.ac.vuw.ecs.swen225.gp21.App.InfoPanel--><path codeLine="31" d="M122.58,127.96 C118.77,164.96 113.33,217.77 109.74,252.7 " fill="none" id="javax.swing.JPanel-backto-nz.ac.vuw.ecs.swen225.gp21.App.InfoPanel" style="stroke:#A80036;stroke-width:1.0;"/><polygon fill="none" points="115.62,127.18,124.63,108,129.55,128.62,115.62,127.18" style="stroke:#A80036;stroke-width:1.0;"/><!--MD5=[b3ffecddcd3991a24b4c34fd2d208a5b]
reverse link javax.swing.JFrame to nz.ac.vuw.ecs.swen225.gp21.App.MainFrame--><path codeLine="32" d="M317,147.49 C317,164.63 317,183.53 317,201.78 " fill="none" id="javax.swing.JFrame-backto-nz.ac.vuw.ecs.swen225.gp21.App.MainFrame" style="stroke:#A80036;stroke-width:1.0;"/><polygon fill="none" points="310,147.27,317,127.27,324,147.27,310,147.27" style="stroke:#A80036;stroke-width:1.0;"/><text fill="#888888" font-family="sans-serif" font-size="10" lengthAdjust="spacing" textLength="186" x="279.5" y="409.2822">UMLDoclet 2.0.14, PlantUML 1.2021.9</text><!--MD5=[d745f4509631c83893a5379b167fe9a2]
@startuml
    namespace nz.ac.vuw.ecs.swen225.gp21.App {

        class StartingFrame [[StartingFrame.html]] {
            +StartingFrame(String)
            {static} +main(String[]): void
        }

        class GUI [[GUI.html]] {
            +GUI(String)
        }

        class InfoPanel [[InfoPanel.html]] {
            +InfoPanel(String, int)
            +updateValue(int): void
        }

        class MainFrame [[MainFrame.html]] {
            +MainFrame(String)
            +createMenuBar(): void
            +getSaveItem(): JMenuItem
            +setSaveItem(JMenuItem): void
            +getLoadItem(): JMenuItem
            +setLoadItem(JMenuItem): void
            +getLevel1Item(): JMenuItem
            +setLevel1Item(JMenuItem): void
            +getLevel2Item(): JMenuItem
            +setLevel2Item(JMenuItem): void
        }

        javax.swing.JFrame <|- - StartingFrame
        javax.swing.JPanel <|- - InfoPanel
        javax.swing.JFrame <|- - MainFrame
    }

    namespace javax.swing {
        class JFrame {
            #rootPane: JRootPane
            #rootPaneCheckingEnabled: boolean
            #accessibleContext: AccessibleContext
        }
        class JPanel {
        }
    }

    center footer UMLDoclet 2.0.14, PlantUML 1.2021.9
@enduml

PlantUML version 1.2021.9(Sun Jul 25 22:13:56 NZST 2021)
(APACHE source distribution)
Java Runtime: OpenJDK Runtime Environment
JVM: OpenJDK 64-Bit Server VM
Default Encoding: UTF-8
Language: en
Country: NZ
--></g></svg>