<?xml version="1.0" encoding="UTF-8" standalone="no"?><svg xmlns="http://www.w3.org/2000/svg" xmlns:xlink="http://www.w3.org/1999/xlink" contentScriptType="application/ecmascript" contentStyleType="text/css" height="207px" preserveAspectRatio="none" style="width:215px;height:207px;background:#FFFFFF;" version="1.1" viewBox="0 0 215 207" width="215px" zoomAndPan="magnify"><defs><filter height="300%" id="f1an62ihb2ifm1" width="300%" x="-1" y="-1"><feGaussianBlur result="blurOut" stdDeviation="2.0"/><feColorMatrix in="blurOut" result="blurOut2" type="matrix" values="0 0 0 0 0 0 0 0 0 0 0 0 0 0 0 0 0 0 .4 0"/><feOffset dx="4.0" dy="4.0" in="blurOut2" result="blurOut3"/><feBlend in="SourceGraphic" in2="blurOut3" mode="normal"/></filter></defs><g><!--MD5=[a95bf352e6f91f5eb0c2761af65ed605]
class nz.ac.vuw.ecs.swen225.gp21.App.StartingFrame--><a href="StartingFrame.html" target="_top" title="StartingFrame.html" xlink:actuate="onRequest" xlink:href="StartingFrame.html" xlink:show="new" xlink:title="StartingFrame.html" xlink:type="simple"><rect codeLine="5" fill="#FEFECE" filter="url(#f1an62ihb2ifm1)" height="71.5469" id="nz.ac.vuw.ecs.swen225.gp21.App.StartingFrame" style="stroke:#A80036;stroke-width:1.5;" width="194" x="7" y="105"/><ellipse cx="22" cy="123.9688" fill="#ADD1B2" rx="11" ry="11" style="stroke:#A80036;stroke-width:1.0;"/><path d="M24.9688,129.6094 Q24.3906,129.9063 23.75,130.0469 Q23.1094,130.2031 22.4063,130.2031 Q19.9063,130.2031 18.5781,128.5625 Q17.2656,126.9063 17.2656,123.7813 Q17.2656,120.6563 18.5781,119 Q19.9063,117.3438 22.4063,117.3438 Q23.1094,117.3438 23.75,117.5 Q24.4063,117.6563 24.9688,117.9531 L24.9688,120.6719 Q24.3438,120.0938 23.75,119.8281 Q23.1563,119.5469 22.5313,119.5469 Q21.1875,119.5469 20.5,120.625 Q19.8125,121.6875 19.8125,123.7813 Q19.8125,125.875 20.5,126.9531 Q21.1875,128.0156 22.5313,128.0156 Q23.1563,128.0156 23.75,127.75 Q24.3438,127.4688 24.9688,126.8906 L24.9688,129.6094 Z " fill="#000000"/><text fill="#000000" font-family="sans-serif" font-size="14" lengthAdjust="spacing" textLength="96" x="69" y="122.9951">StartingFrame</text><text fill="#000000" font-family="sans-serif" font-size="10" lengthAdjust="spacing" textLength="162" x="36" y="135.5791">nz.ac.vuw.ecs.swen225.gp21.App</text><line style="stroke:#A80036;stroke-width:1.5;" x1="8" x2="200" y1="142.9375" y2="142.9375"/><ellipse cx="18" cy="153.9375" fill="#84BE84" rx="3" ry="3" style="stroke:#038048;stroke-width:1.0;"/><text fill="#000000" font-family="sans-serif" font-size="11" lengthAdjust="spacing" textLength="123" x="27" y="157.1479">StartingFrame(String)</text><ellipse cx="18" cy="166.7422" fill="#84BE84" rx="3" ry="3" style="stroke:#038048;stroke-width:1.0;"/><text fill="#000000" font-family="sans-serif" font-size="11" lengthAdjust="spacing" text-decoration="underline" textLength="109" x="27" y="169.9526">main(String[]): void</text></a><!--MD5=[18a7562403221f513ca44e0f82c4c17a]
class javax.swing.JFrame--><rect codeLine="10" fill="#FEFECE" filter="url(#f1an62ihb2ifm1)" height="37.9375" id="javax.swing.JFrame" style="stroke:#A80036;stroke-width:1.5;" width="88" x="60" y="7"/><ellipse cx="75" cy="25.9688" fill="#ADD1B2" rx="11" ry="11" style="stroke:#A80036;stroke-width:1.0;"/><path d="M77.9688,31.6094 Q77.3906,31.9063 76.75,32.0469 Q76.1094,32.2031 75.4063,32.2031 Q72.9063,32.2031 71.5781,30.5625 Q70.2656,28.9063 70.2656,25.7813 Q70.2656,22.6563 71.5781,21 Q72.9063,19.3438 75.4063,19.3438 Q76.1094,19.3438 76.75,19.5 Q77.4063,19.6563 77.9688,19.9531 L77.9688,22.6719 Q77.3438,22.0938 76.75,21.8281 Q76.1563,21.5469 75.5313,21.5469 Q74.1875,21.5469 73.5,22.625 Q72.8125,23.6875 72.8125,25.7813 Q72.8125,27.875 73.5,28.9531 Q74.1875,30.0156 75.5313,30.0156 Q76.1563,30.0156 76.75,29.75 Q77.3438,29.4688 77.9688,28.8906 L77.9688,31.6094 Z " fill="#000000"/><text fill="#000000" font-family="sans-serif" font-size="14" lengthAdjust="spacing" textLength="46" x="94" y="24.9951">JFrame</text><text fill="#000000" font-family="sans-serif" font-size="10" lengthAdjust="spacing" textLength="56" x="89" y="37.5791">javax.swing</text><!--MD5=[800faf2d47e1e38e01b44f72c99b3de2]
reverse link javax.swing.JFrame to nz.ac.vuw.ecs.swen225.gp21.App.StartingFrame--><path codeLine="12" d="M104,65.3 C104,78 104,92.08 104,104.56 " fill="none" id="javax.swing.JFrame-backto-nz.ac.vuw.ecs.swen225.gp21.App.StartingFrame" style="stroke:#A80036;stroke-width:1.0;"/><polygon fill="none" points="97,65.16,104,45.16,111,65.16,97,65.16" style="stroke:#A80036;stroke-width:1.0;"/><text fill="#888888" font-family="sans-serif" font-size="10" lengthAdjust="spacing" textLength="186" x="8" y="198.8291">UMLDoclet 2.0.14, PlantUML 1.2021.9</text><!--MD5=[addb45c43a2d881e90a433a207065a16]
@startuml
    set namespaceSeparator none
    hide empty fields
    hide empty methods

    class "<size:14>StartingFrame\n<size:10>nz.ac.vuw.ecs.swen225.gp21.App" as nz.ac.vuw.ecs.swen225.gp21.App.StartingFrame [[StartingFrame.html]] {
        +StartingFrame(String)
        {static} +main(String[]): void
    }

    class "<size:14>JFrame\n<size:10>javax.swing" as javax.swing.JFrame

    javax.swing.JFrame <|- - nz.ac.vuw.ecs.swen225.gp21.App.StartingFrame

    center footer UMLDoclet 2.0.14, PlantUML 1.2021.9
@enduml

PlantUML version 1.2021.9(Sun Jul 25 22:13:56 NZST 2021)
(APACHE source distribution)
Java Runtime: OpenJDK Runtime Environment
JVM: OpenJDK 64-Bit Server VM
Default Encoding: UTF-8
Language: en
Country: NZ
--></g></svg>