<?xml version="1.0" encoding="UTF-8" standalone="no"?><svg xmlns="http://www.w3.org/2000/svg" xmlns:xlink="http://www.w3.org/1999/xlink" contentScriptType="application/ecmascript" contentStyleType="text/css" height="179px" preserveAspectRatio="none" style="width:360px;height:179px;background:#FFFFFF;" version="1.1" viewBox="0 0 360 179" width="360px" zoomAndPan="magnify"><defs><filter height="300%" id="fqotvrmxkxcow" width="300%" x="-1" y="-1"><feGaussianBlur result="blurOut" stdDeviation="2.0"/><feColorMatrix in="blurOut" result="blurOut2" type="matrix" values="0 0 0 0 0 0 0 0 0 0 0 0 0 0 0 0 0 0 .4 0"/><feOffset dx="4.0" dy="4.0" in="blurOut2" result="blurOut3"/><feBlend in="SourceGraphic" in2="blurOut3" mode="normal"/></filter></defs><g><!--MD5=[2688e0db7b63f34f820c3d896cface71]
cluster nz.ac.vuw.ecs.swen225.gp21.recorder--><polygon fill="#FFFFFF" filter="url(#fqotvrmxkxcow)" points="16,6,333,6,340,28.2969,343,28.2969,343,156,16,156,16,6" style="stroke:#000000;stroke-width:1.5;"/><line style="stroke:#000000;stroke-width:1.5;" x1="16" x2="340" y1="28.2969" y2="28.2969"/><text fill="#000000" font-family="sans-serif" font-size="14" font-weight="bold" lengthAdjust="spacing" textLength="311" x="20" y="20.9951">nz.ac.vuw.ecs.swen225.gp21.recorder</text><!--MD5=[5030a1204a086ecc03d2373ca4363ba9]
class nz.ac.vuw.ecs.swen225.gp21.recorder.RecordAndPlay--><a href="RecordAndPlay.html" target="_top" title="RecordAndPlay.html" xlink:actuate="onRequest" xlink:href="RecordAndPlay.html" xlink:show="new" xlink:title="RecordAndPlay.html" xlink:type="simple"><rect codeLine="3" fill="#FEFECE" filter="url(#fqotvrmxkxcow)" height="99.2188" id="nz.ac.vuw.ecs.swen225.gp21.recorder.RecordAndPlay" style="stroke:#A80036;stroke-width:1.5;" width="192" x="83" y="41"/><ellipse cx="128.25" cy="57" fill="#ADD1B2" rx="11" ry="11" style="stroke:#A80036;stroke-width:1.0;"/><path d="M131.2188,62.6406 Q130.6406,62.9375 130,63.0781 Q129.3594,63.2344 128.6563,63.2344 Q126.1563,63.2344 124.8281,61.5938 Q123.5156,59.9375 123.5156,56.8125 Q123.5156,53.6875 124.8281,52.0313 Q126.1563,50.375 128.6563,50.375 Q129.3594,50.375 130,50.5313 Q130.6563,50.6875 131.2188,50.9844 L131.2188,53.7031 Q130.5938,53.125 130,52.8594 Q129.4063,52.5781 128.7813,52.5781 Q127.4375,52.5781 126.75,53.6563 Q126.0625,54.7188 126.0625,56.8125 Q126.0625,58.9063 126.75,59.9844 Q127.4375,61.0469 128.7813,61.0469 Q129.4063,61.0469 130,60.7813 Q130.5938,60.5 131.2188,59.9219 L131.2188,62.6406 Z " fill="#000000"/><text fill="#000000" font-family="sans-serif" font-size="12" lengthAdjust="spacing" textLength="93" x="148.75" y="61.1543">RecordAndPlay</text><line style="stroke:#A80036;stroke-width:1.5;" x1="84" x2="274" y1="73" y2="73"/><line style="stroke:#A80036;stroke-width:1.5;" x1="84" x2="274" y1="81" y2="81"/><ellipse cx="94" cy="92" fill="#84BE84" rx="3" ry="3" style="stroke:#038048;stroke-width:1.0;"/><text fill="#000000" font-family="sans-serif" font-size="11" lengthAdjust="spacing" textLength="166" x="103" y="95.2104">getAllMoves(): Stack&lt;String&gt;</text><ellipse cx="94" cy="104.8047" fill="#84BE84" rx="3" ry="3" style="stroke:#038048;stroke-width:1.0;"/><text fill="#000000" font-family="sans-serif" font-size="11" lengthAdjust="spacing" textLength="130" x="103" y="108.0151">addMoves(String): void</text><ellipse cx="94" cy="117.6094" fill="#84BE84" rx="3" ry="3" style="stroke:#038048;stroke-width:1.0;"/><text fill="#000000" font-family="sans-serif" font-size="11" lengthAdjust="spacing" text-decoration="underline" textLength="149" x="103" y="120.8198">save(RecordAndPlay): void</text><ellipse cx="94" cy="130.4141" fill="#84BE84" rx="3" ry="3" style="stroke:#038048;stroke-width:1.0;"/><text fill="#000000" font-family="sans-serif" font-size="11" lengthAdjust="spacing" text-decoration="underline" textLength="109" x="103" y="133.6245">main(String[]): void</text></a><text fill="#888888" font-family="sans-serif" font-size="10" lengthAdjust="spacing" textLength="186" x="80.5" y="171.2822">UMLDoclet 2.0.14, PlantUML 1.2021.9</text><!--MD5=[e517fe17f5a888a24ba3ebc189bc8065]
@startuml
    namespace nz.ac.vuw.ecs.swen225.gp21.recorder {

        class RecordAndPlay [[RecordAndPlay.html]] {
            +getAllMoves(): Stack<String>
            +addMoves(String): void
            {static} +save(RecordAndPlay): void
            {static} +main(String[]): void
        }

    }

    center footer UMLDoclet 2.0.14, PlantUML 1.2021.9
@enduml

PlantUML version 1.2021.9(Sun Jul 25 22:13:56 NZST 2021)
(APACHE source distribution)
Java Runtime: OpenJDK Runtime Environment
JVM: OpenJDK 64-Bit Server VM
Default Encoding: UTF-8
Language: en
Country: NZ
--></g></svg>