<?xml version="1.0" encoding="UTF-8" standalone="no"?><svg xmlns="http://www.w3.org/2000/svg" xmlns:xlink="http://www.w3.org/1999/xlink" contentScriptType="application/ecmascript" contentStyleType="text/css" height="435px" preserveAspectRatio="none" style="width:496px;height:435px;background:#FFFFFF;" version="1.1" viewBox="0 0 496 435" width="496px" zoomAndPan="magnify"><defs><filter height="300%" id="f17hmgcf3a3z9e" width="300%" x="-1" y="-1"><feGaussianBlur result="blurOut" stdDeviation="2.0"/><feColorMatrix in="blurOut" result="blurOut2" type="matrix" values="0 0 0 0 0 0 0 0 0 0 0 0 0 0 0 0 0 0 .4 0"/><feOffset dx="4.0" dy="4.0" in="blurOut2" result="blurOut3"/><feBlend in="SourceGraphic" in2="blurOut3" mode="normal"/></filter></defs><g><!--MD5=[f62b0da63a2d0b3961939abbbc91bafc]
cluster nz.ac.vuw.ecs.swen225.gp21.renderer--><polygon fill="#FFFFFF" filter="url(#f17hmgcf3a3z9e)" points="16,6,334,6,341,28.2969,479,28.2969,479,412,16,412,16,6" style="stroke:#000000;stroke-width:1.5;"/><line style="stroke:#000000;stroke-width:1.5;" x1="16" x2="341" y1="28.2969" y2="28.2969"/><text fill="#000000" font-family="sans-serif" font-size="14" font-weight="bold" lengthAdjust="spacing" textLength="312" x="20" y="20.9951">nz.ac.vuw.ecs.swen225.gp21.renderer</text><!--MD5=[fcea3b8ffaa51ac1874e56e41ed7cc91]
class nz.ac.vuw.ecs.swen225.gp21.renderer.Board--><a href="Board.html" target="_top" title="Board.html" xlink:actuate="onRequest" xlink:href="Board.html" xlink:show="new" xlink:title="Board.html" xlink:type="simple"><rect codeLine="3" fill="#FEFECE" filter="url(#f17hmgcf3a3z9e)" height="355.3125" id="nz.ac.vuw.ecs.swen225.gp21.renderer.Board" style="stroke:#A80036;stroke-width:1.5;" width="196" x="267" y="41"/><ellipse cx="342.25" cy="57" fill="#ADD1B2" rx="11" ry="11" style="stroke:#A80036;stroke-width:1.0;"/><path d="M345.2188,62.6406 Q344.6406,62.9375 344,63.0781 Q343.3594,63.2344 342.6563,63.2344 Q340.1563,63.2344 338.8281,61.5938 Q337.5156,59.9375 337.5156,56.8125 Q337.5156,53.6875 338.8281,52.0313 Q340.1563,50.375 342.6563,50.375 Q343.3594,50.375 344,50.5313 Q344.6563,50.6875 345.2188,50.9844 L345.2188,53.7031 Q344.5938,53.125 344,52.8594 Q343.4063,52.5781 342.7813,52.5781 Q341.4375,52.5781 340.75,53.6563 Q340.0625,54.7188 340.0625,56.8125 Q340.0625,58.9063 340.75,59.9844 Q341.4375,61.0469 342.7813,61.0469 Q343.4063,61.0469 344,60.7813 Q344.5938,60.5 345.2188,59.9219 L345.2188,62.6406 Z " fill="#000000"/><text fill="#000000" font-family="sans-serif" font-size="12" lengthAdjust="spacing" textLength="37" x="362.75" y="61.1543">Board</text><line style="stroke:#A80036;stroke-width:1.5;" x1="268" x2="462" y1="73" y2="73"/><ellipse cx="278" cy="84" rx="3" ry="3" style="stroke:#038048;stroke-width:1.0;fill:none;"/><text fill="#000000" font-family="sans-serif" font-size="11" lengthAdjust="spacing" text-decoration="underline" textLength="119" x="287" y="87.2104">chap: BufferedImage</text><ellipse cx="278" cy="96.8047" rx="3" ry="3" style="stroke:#038048;stroke-width:1.0;fill:none;"/><text fill="#000000" font-family="sans-serif" font-size="11" lengthAdjust="spacing" text-decoration="underline" textLength="127" x="287" y="100.0151">empty: BufferedImage</text><ellipse cx="278" cy="109.6094" rx="3" ry="3" style="stroke:#038048;stroke-width:1.0;fill:none;"/><text fill="#000000" font-family="sans-serif" font-size="11" lengthAdjust="spacing" text-decoration="underline" textLength="125" x="287" y="112.8198">portal: BufferedImage</text><ellipse cx="278" cy="122.4141" rx="3" ry="3" style="stroke:#038048;stroke-width:1.0;fill:none;"/><text fill="#000000" font-family="sans-serif" font-size="11" lengthAdjust="spacing" text-decoration="underline" textLength="114" x="287" y="125.6245">lock: BufferedImage</text><ellipse cx="278" cy="135.2188" rx="3" ry="3" style="stroke:#038048;stroke-width:1.0;fill:none;"/><text fill="#000000" font-family="sans-serif" font-size="11" lengthAdjust="spacing" text-decoration="underline" textLength="141" x="287" y="138.4292">treasure: BufferedImage</text><ellipse cx="278" cy="148.0234" rx="3" ry="3" style="stroke:#038048;stroke-width:1.0;fill:none;"/><text fill="#000000" font-family="sans-serif" font-size="11" lengthAdjust="spacing" text-decoration="underline" textLength="113" x="287" y="151.2339">info: BufferedImage</text><ellipse cx="278" cy="160.8281" rx="3" ry="3" style="stroke:#038048;stroke-width:1.0;fill:none;"/><text fill="#000000" font-family="sans-serif" font-size="11" lengthAdjust="spacing" text-decoration="underline" textLength="127" x="287" y="164.0386">doorG: BufferedImage</text><ellipse cx="278" cy="173.6328" rx="3" ry="3" style="stroke:#038048;stroke-width:1.0;fill:none;"/><text fill="#000000" font-family="sans-serif" font-size="11" lengthAdjust="spacing" text-decoration="underline" textLength="126" x="287" y="176.8433">doorB: BufferedImage</text><ellipse cx="278" cy="186.4375" rx="3" ry="3" style="stroke:#038048;stroke-width:1.0;fill:none;"/><text fill="#000000" font-family="sans-serif" font-size="11" lengthAdjust="spacing" text-decoration="underline" textLength="125" x="287" y="189.6479">doorY: BufferedImage</text><ellipse cx="278" cy="199.2422" rx="3" ry="3" style="stroke:#038048;stroke-width:1.0;fill:none;"/><text fill="#000000" font-family="sans-serif" font-size="11" lengthAdjust="spacing" text-decoration="underline" textLength="125" x="287" y="202.4526">doorR: BufferedImage</text><ellipse cx="278" cy="212.0469" rx="3" ry="3" style="stroke:#038048;stroke-width:1.0;fill:none;"/><text fill="#000000" font-family="sans-serif" font-size="11" lengthAdjust="spacing" text-decoration="underline" textLength="114" x="287" y="215.2573">wall: BufferedImage</text><ellipse cx="278" cy="224.8516" rx="3" ry="3" style="stroke:#038048;stroke-width:1.0;fill:none;"/><text fill="#000000" font-family="sans-serif" font-size="11" lengthAdjust="spacing" text-decoration="underline" textLength="118" x="287" y="228.062">keyY: BufferedImage</text><ellipse cx="278" cy="237.6563" rx="3" ry="3" style="stroke:#038048;stroke-width:1.0;fill:none;"/><text fill="#000000" font-family="sans-serif" font-size="11" lengthAdjust="spacing" text-decoration="underline" textLength="120" x="287" y="240.8667">keyG: BufferedImage</text><ellipse cx="278" cy="250.4609" rx="3" ry="3" style="stroke:#038048;stroke-width:1.0;fill:none;"/><text fill="#000000" font-family="sans-serif" font-size="11" lengthAdjust="spacing" text-decoration="underline" textLength="119" x="287" y="253.6714">keyB: BufferedImage</text><ellipse cx="278" cy="263.2656" rx="3" ry="3" style="stroke:#038048;stroke-width:1.0;fill:none;"/><text fill="#000000" font-family="sans-serif" font-size="11" lengthAdjust="spacing" text-decoration="underline" textLength="118" x="287" y="266.4761">keyR: BufferedImage</text><ellipse cx="278" cy="276.0703" rx="3" ry="3" style="stroke:#038048;stroke-width:1.0;fill:none;"/><text fill="#000000" font-family="sans-serif" font-size="11" lengthAdjust="spacing" text-decoration="underline" textLength="115" x="287" y="279.2808">acid: BufferedImage</text><ellipse cx="278" cy="288.875" rx="3" ry="3" style="stroke:#038048;stroke-width:1.0;fill:none;"/><text fill="#000000" font-family="sans-serif" font-size="11" lengthAdjust="spacing" text-decoration="underline" textLength="117" x="287" y="292.0854">time: BufferedImage</text><ellipse cx="278" cy="301.6797" rx="3" ry="3" style="stroke:#038048;stroke-width:1.0;fill:none;"/><text fill="#000000" font-family="sans-serif" font-size="11" lengthAdjust="spacing" text-decoration="underline" textLength="137" x="287" y="304.8901">chapleft: BufferedImage</text><ellipse cx="278" cy="314.4844" rx="3" ry="3" style="stroke:#038048;stroke-width:1.0;fill:none;"/><text fill="#000000" font-family="sans-serif" font-size="11" lengthAdjust="spacing" text-decoration="underline" textLength="145" x="287" y="317.6948">chapright: BufferedImage</text><ellipse cx="278" cy="327.2891" rx="3" ry="3" style="stroke:#038048;stroke-width:1.0;fill:none;"/><text fill="#000000" font-family="sans-serif" font-size="11" lengthAdjust="spacing" text-decoration="underline" textLength="133" x="287" y="330.4995">chapup: BufferedImage</text><line style="stroke:#A80036;stroke-width:1.5;" x1="268" x2="462" y1="337.0938" y2="337.0938"/><ellipse cx="278" cy="348.0938" fill="#84BE84" rx="3" ry="3" style="stroke:#038048;stroke-width:1.0;"/><text fill="#000000" font-family="sans-serif" font-size="11" lengthAdjust="spacing" textLength="76" x="287" y="351.3042">Board(Game)</text><ellipse cx="278" cy="360.8984" fill="#84BE84" rx="3" ry="3" style="stroke:#038048;stroke-width:1.0;"/><text fill="#000000" font-family="sans-serif" font-size="11" lengthAdjust="spacing" textLength="130" x="287" y="364.1089">redraw(Graphics): void</text><ellipse cx="278" cy="373.7031" fill="#84BE84" rx="3" ry="3" style="stroke:#038048;stroke-width:1.0;"/><text fill="#000000" font-family="sans-serif" font-size="11" lengthAdjust="spacing" textLength="132" x="287" y="376.9136">playSound(String): void</text><ellipse cx="278" cy="386.5078" fill="#84BE84" rx="3" ry="3" style="stroke:#038048;stroke-width:1.0;"/><text fill="#000000" font-family="sans-serif" font-size="11" lengthAdjust="spacing" textLength="170" x="287" y="389.7183">getGameBoard(): JComponent</text></a><!--MD5=[50d30e7bf3e39b8d6e9ecaf96de80121]
class nz.ac.vuw.ecs.swen225.gp21.renderer.RenderTile--><a href="RenderTile.html" target="_top" title="RenderTile.html" xlink:actuate="onRequest" xlink:href="RenderTile.html" xlink:show="new" xlink:title="RenderTile.html" xlink:type="simple"><rect codeLine="30" fill="#FEFECE" filter="url(#f17hmgcf3a3z9e)" height="112.0234" id="nz.ac.vuw.ecs.swen225.gp21.renderer.RenderTile" style="stroke:#A80036;stroke-width:1.5;" width="200" x="32" y="162.5"/><ellipse cx="94.75" cy="178.5" fill="#ADD1B2" rx="11" ry="11" style="stroke:#A80036;stroke-width:1.0;"/><path d="M97.7188,184.1406 Q97.1406,184.4375 96.5,184.5781 Q95.8594,184.7344 95.1563,184.7344 Q92.6563,184.7344 91.3281,183.0938 Q90.0156,181.4375 90.0156,178.3125 Q90.0156,175.1875 91.3281,173.5313 Q92.6563,171.875 95.1563,171.875 Q95.8594,171.875 96.5,172.0313 Q97.1563,172.1875 97.7188,172.4844 L97.7188,175.2031 Q97.0938,174.625 96.5,174.3594 Q95.9063,174.0781 95.2813,174.0781 Q93.9375,174.0781 93.25,175.1563 Q92.5625,176.2188 92.5625,178.3125 Q92.5625,180.4063 93.25,181.4844 Q93.9375,182.5469 95.2813,182.5469 Q95.9063,182.5469 96.5,182.2813 Q97.0938,182 97.7188,181.4219 L97.7188,184.1406 Z " fill="#000000"/><text fill="#000000" font-family="sans-serif" font-size="12" lengthAdjust="spacing" textLength="66" x="115.25" y="182.6543">RenderTile</text><line style="stroke:#A80036;stroke-width:1.5;" x1="33" x2="231" y1="194.5" y2="194.5"/><ellipse cx="43" cy="205.5" rx="3" ry="3" style="stroke:#038048;stroke-width:1.0;fill:none;"/><text fill="#000000" font-family="sans-serif" font-size="11" lengthAdjust="spacing" textLength="113" x="52" y="208.7104">img: BufferedImage</text><ellipse cx="43" cy="218.3047" rx="3" ry="3" style="stroke:#038048;stroke-width:1.0;fill:none;"/><text fill="#000000" font-family="sans-serif" font-size="11" lengthAdjust="spacing" textLength="104" x="52" y="221.5151">lasMoveDir: String</text><ellipse cx="43" cy="231.1094" rx="3" ry="3" style="stroke:#038048;stroke-width:1.0;fill:none;"/><text fill="#000000" font-family="sans-serif" font-size="11" lengthAdjust="spacing" textLength="112" x="52" y="234.3198">hasEnemy: boolean</text><line style="stroke:#A80036;stroke-width:1.5;" x1="33" x2="231" y1="240.9141" y2="240.9141"/><ellipse cx="43" cy="251.9141" fill="#84BE84" rx="3" ry="3" style="stroke:#038048;stroke-width:1.0;"/><text fill="#000000" font-family="sans-serif" font-size="11" lengthAdjust="spacing" textLength="174" x="52" y="255.1245">RenderTile(int, int, String, Tile)</text><ellipse cx="43" cy="264.7188" fill="#84BE84" rx="3" ry="3" style="stroke:#038048;stroke-width:1.0;"/><text fill="#000000" font-family="sans-serif" font-size="11" lengthAdjust="spacing" textLength="118" x="52" y="267.9292">draw(Graphics): void</text></a><text fill="#888888" font-family="sans-serif" font-size="10" lengthAdjust="spacing" textLength="186" x="148.5" y="427.2822">UMLDoclet 2.0.14, PlantUML 1.2021.9</text><!--MD5=[b16d83edd240c272d035b6d5404bf5f4]
@startuml
    namespace nz.ac.vuw.ecs.swen225.gp21.renderer {

        class Board [[Board.html]] {
            {static} +chap: BufferedImage
            {static} +empty: BufferedImage
            {static} +portal: BufferedImage
            {static} +lock: BufferedImage
            {static} +treasure: BufferedImage
            {static} +info: BufferedImage
            {static} +doorG: BufferedImage
            {static} +doorB: BufferedImage
            {static} +doorY: BufferedImage
            {static} +doorR: BufferedImage
            {static} +wall: BufferedImage
            {static} +keyY: BufferedImage
            {static} +keyG: BufferedImage
            {static} +keyB: BufferedImage
            {static} +keyR: BufferedImage
            {static} +acid: BufferedImage
            {static} +time: BufferedImage
            {static} +chapleft: BufferedImage
            {static} +chapright: BufferedImage
            {static} +chapup: BufferedImage
            +Board(Game)
            +redraw(Graphics): void
            +playSound(String): void
            +getGameBoard(): JComponent
        }

        class RenderTile [[RenderTile.html]] {
            +img: BufferedImage
            +lasMoveDir: String
            +hasEnemy: boolean
            +RenderTile(int, int, String, Tile)
            +draw(Graphics): void
        }

    }

    center footer UMLDoclet 2.0.14, PlantUML 1.2021.9
@enduml

PlantUML version 1.2021.9(Sun Jul 25 22:13:56 NZST 2021)
(APACHE source distribution)
Java Runtime: OpenJDK Runtime Environment
JVM: OpenJDK 64-Bit Server VM
Default Encoding: UTF-8
Language: en
Country: NZ
--></g></svg>